<svg xmlns="http://www.w3.org/2000/svg" width="31.924" height="24.317" viewBox="0 0 31.924 24.317"><defs><style>.a{fill:#fff;}</style></defs><path class="a" d="M4.676,24.317H27.248a4.682,4.682,0,0,0,4.676-4.676V4.676A4.682,4.682,0,0,0,27.248,0H4.676A4.682,4.682,0,0,0,0,4.676V19.641A4.682,4.682,0,0,0,4.676,24.317ZM1.871,4.676A2.809,2.809,0,0,1,4.676,1.871H27.248a2.809,2.809,0,0,1,2.806,2.806V19.641a2.809,2.809,0,0,1-2.806,2.806H4.676a2.809,2.809,0,0,1-2.806-2.806Zm0,0"/><path class="a" d="M181,94.508v12.714l11.255-6.461Zm1.871,3.179,5.581,3.1-5.581,3.2Zm0,0" transform="translate(-169.714 -88.615)"/></svg>