<svg xmlns="http://www.w3.org/2000/svg" width="24.317" height="24.317" viewBox="0 0 24.317 24.317"><defs><style>.a{fill:#fff;}</style></defs><path class="a" d="M3.562,24.317h7.932V15.673H8.644v-2.85h2.85V9.262A3.566,3.566,0,0,1,15.056,5.7h3.562v2.85h-2.85a1.426,1.426,0,0,0-1.425,1.425v2.85h4.146l-.475,2.85H14.343v8.644h6.412a3.566,3.566,0,0,0,3.562-3.562V3.562A3.566,3.566,0,0,0,20.755,0H3.562A3.566,3.566,0,0,0,0,3.562V20.755A3.566,3.566,0,0,0,3.562,24.317ZM1.425,3.562A2.14,2.14,0,0,1,3.562,1.425H20.755a2.14,2.14,0,0,1,2.137,2.137V20.755a2.14,2.14,0,0,1-2.137,2.137H15.768V17.1h3.453l.95-5.7h-4.4V9.974h4.275v-5.7H15.056a4.993,4.993,0,0,0-4.987,4.987V11.4H7.219v5.7h2.85v5.794H3.562a2.14,2.14,0,0,1-2.137-2.137Zm0,0"/></svg>