<svg xmlns="http://www.w3.org/2000/svg" width="24.317" height="24.317" viewBox="0 0 24.317 24.317"><defs><style>.a{fill:#fff;}</style></defs><path class="a" d="M3.562,24.317H20.755a3.566,3.566,0,0,0,3.562-3.562V3.562A3.566,3.566,0,0,0,20.755,0H3.562A3.566,3.566,0,0,0,0,3.562V20.755A3.566,3.566,0,0,0,3.562,24.317ZM1.425,3.562A2.14,2.14,0,0,1,3.562,1.425H20.755a2.14,2.14,0,0,1,2.137,2.137V20.755a2.14,2.14,0,0,1-2.137,2.137H3.562a2.14,2.14,0,0,1-2.137-2.137Zm0,0"/><path class="a" d="M127.412,133.824A6.412,6.412,0,1,0,121,127.412,6.419,6.419,0,0,0,127.412,133.824Zm0-11.4a4.987,4.987,0,1,1-4.987,4.987A4.993,4.993,0,0,1,127.412,122.425Zm0,0" transform="translate(-115.253 -115.253)"/><path class="a" d="M363.137,65.275A2.137,2.137,0,1,0,361,63.137,2.14,2.14,0,0,0,363.137,65.275Zm0-2.85a.712.712,0,1,1-.712.712A.713.713,0,0,1,363.137,62.425Zm0,0" transform="translate(-343.854 -58.103)"/></svg>