<svg xmlns="http://www.w3.org/2000/svg" width="24.317" height="24.317" viewBox="0 0 24.317 24.317"><defs><style>.a{fill:#fff;}</style></defs><path class="a" d="M12.159,0A12.159,12.159,0,1,0,24.317,12.206,12.241,12.241,0,0,0,12.159,0ZM14.3,22.679a10.793,10.793,0,0,1-4.275,0V19.345a2.026,2.026,0,0,1,.5-1.468,15.581,15.581,0,0,0,.883-1.3l-1.1-.171C7.485,16,6.374,14.529,5.932,13.389a4.846,4.846,0,0,1,.755-4.645.859.859,0,0,0,.171-.827,4.2,4.2,0,0,1-.043-2.095A6.5,6.5,0,0,1,9,6.863a1.024,1.024,0,0,0,.6.142,10.355,10.355,0,0,1,2.579-.37,8.73,8.73,0,0,1,2.38.342,1.028,1.028,0,0,0,.769-.114,6.33,6.33,0,0,1,2.18-1.04,4.2,4.2,0,0,1-.043,2.095.858.858,0,0,0,.171.827,4.846,4.846,0,0,1,.755,4.645c-.442,1.14-1.553,2.608-4.374,3.021l-1.1.171a15.237,15.237,0,0,0,.883,1.3,2.026,2.026,0,0,1,.5,1.468Zm1.425-.413V19.345a3.417,3.417,0,0,0-.4-1.753,6.094,6.094,0,0,0,4.389-3.7A6.265,6.265,0,0,0,18.9,8.046a4.722,4.722,0,0,0-.3-3.192,1.112,1.112,0,0,0-.94-.484h-.014a6.243,6.243,0,0,0-2.907,1.183,10.049,10.049,0,0,0-2.593-.342,9.842,9.842,0,0,0-2.55.342A6.3,6.3,0,0,0,6.616,4.37a1.093,1.093,0,0,0-.9.484,4.725,4.725,0,0,0-.3,3.192,6.27,6.27,0,0,0-.812,5.842A6.094,6.094,0,0,0,9,17.592a3.1,3.1,0,0,0-.372,1.248,1.9,1.9,0,0,1-1.17.1,1.577,1.577,0,0,1-.914-.782,2.929,2.929,0,0,0-2.627-1.626l.125,1.419c.508-.047,1.014.491,1.277.934A2.933,2.933,0,0,0,8.6,20.345v1.921a10.734,10.734,0,1,1,7.124,0Zm0,0"/></svg>