<svg xmlns="http://www.w3.org/2000/svg" width="29.711" height="24.317" viewBox="0 0 29.711 24.317"><defs><style>.a{fill:#fff;}</style></defs><path class="a" d="M29.711,3.248c-1.869.086-1.828.079-2.039.1L28.778.184s-3.455,1.271-4.331,1.5a6.932,6.932,0,0,0-8.164-.656A5.654,5.654,0,0,0,13.566,6.84a15.081,15.081,0,0,1-9.77-5.5L2.976.355,2.363,1.479a6.8,6.8,0,0,0-.724,4.576,6.574,6.574,0,0,0,.637,1.786l-.7-.272L1.49,8.744A6.269,6.269,0,0,0,2.553,12.47a6.626,6.626,0,0,0,.828,1.021l-.363-.056.443,1.346a6.545,6.545,0,0,0,3.364,3.9c-1.569.666-2.836,1.091-4.919,1.776L0,21.082l1.76.962A18.477,18.477,0,0,0,7.147,24c5.209.817,11.074.152,15.022-3.4,3.326-3,4.417-7.256,4.19-11.689a2.77,2.77,0,0,1,.518-1.8c.737-.984,2.83-3.854,2.834-3.86ZM25.485,6.065A4.511,4.511,0,0,0,24.622,9c.229,4.472-.988,7.94-3.617,10.308-3.071,2.766-8.024,3.851-13.589,2.978A13.476,13.476,0,0,1,4.5,21.421a46.166,46.166,0,0,0,5.273-2.168l3.041-1.439L9.462,17.6a4.748,4.748,0,0,1-3.77-2.148,6.021,6.021,0,0,0,1.278-.213l3.2-.892-3.229-.791a4.809,4.809,0,0,1-2.937-2.043,4.925,4.925,0,0,1-.637-1.4,8.06,8.06,0,0,0,1.31.209l2.988.3L5.3,8.767A4.984,4.984,0,0,1,3.411,3.515a17.32,17.32,0,0,0,12.2,5.253,10.307,10.307,0,0,0-.178-1.477,4,4,0,0,1,1.757-4.785,5.2,5.2,0,0,1,6.134.508,1.558,1.558,0,0,0,1.429.382,12.031,12.031,0,0,0,1.178-.358l-.751,2.144h.958l-.659.881Zm0,0" transform="translate(0 0)"/></svg>