<svg xmlns="http://www.w3.org/2000/svg" width="24.563" height="24.563" viewBox="0 0 24.563 24.563"><defs><style>.a{fill:#fff;}</style></defs><path class="a" d="M20.965,0H3.6A3.6,3.6,0,0,0,0,3.6V20.965a3.6,3.6,0,0,0,3.6,3.6H20.965a3.6,3.6,0,0,0,3.6-3.6V3.6A3.6,3.6,0,0,0,20.965,0Zm2.159,20.965a2.161,2.161,0,0,1-2.159,2.159H3.6a2.161,2.161,0,0,1-2.159-2.159V3.6A2.161,2.161,0,0,1,3.6,1.439H20.965A2.161,2.161,0,0,1,23.124,3.6Zm0,0"/><path class="a" d="M91,220.171h4.318V210H91Zm1.439-8.731h1.439v7.292H92.439Zm0,0" transform="translate(-86.634 -199.925)"/><path class="a" d="M216.761,210h0a4.31,4.31,0,0,0-1.439.245V210H211V220.17h4.318v-5.133a.72.72,0,1,1,1.439,0v5.133h4.318v-5.628A4.523,4.523,0,0,0,216.761,210Zm2.874,8.731H218.2v-3.694a2.159,2.159,0,0,0-4.318,0v3.694h-1.439v-7.292h1.439v1.44l1.152-.865a2.853,2.853,0,0,1,1.727-.575h0a3.077,3.077,0,0,1,2.876,3.1Zm0,0" transform="translate(-200.878 -199.925)"/><path class="a" d="M91,94.318h4.318V90H91Zm1.439-2.878h1.439v1.439H92.439Zm0,0" transform="translate(-86.634 -85.682)"/></svg>